Coordinates
version=1
nRows=6
nColumns=46
inDegrees=yes

Units are S.I. units (second, meters, Newtons, ...)
Angles are in degrees.

endheader
time	pelvis_tilt	pelvis_list	pelvis_rotation	pelvis_tx	pelvis_ty	pelvis_tz	bb_angle	bb_tx	bb_ty	bb_tz	hip_flexion_r	hip_adduction_r	hip_rotation_r	knee_angle_r	knee_angle_r_beta	ankle_angle_r	subtalar_angle_r	mtp_angle_r	crank_angle_r	hip_flexion_l	hip_adduction_l	hip_rotation_l	knee_angle_l	knee_angle_l_beta	ankle_angle_l	subtalar_angle_l	mtp_angle_l	crank_angle_l	lumbar_extension	lumbar_bending	lumbar_rotation	arm_flex_r	arm_add_r	arm_rot_r	elbow_flex_r	pro_sup_r	wrist_flex_r	wrist_dev_r	arm_flex_l	arm_add_l	arm_rot_l	elbow_flex_l	pro_sup_l	wrist_flex_l	wrist_dev_l
      5.00000000	    -22.29892363	     -4.41912306	      6.21394927	      0.36684622	      1.12775575	     -0.27839308	      0.00000000	      0.50000000	      0.00000000	      0.25000000	     58.39286387	     -4.64753183	     -0.67460419	     98.31194008	      1.71586705	    -13.29857771	    -13.01352633	      0.00000000	      0.00000000	     49.67139668	     -0.47301684	      9.34590407	     47.30746173	      0.82567097	    -10.89178373	    -13.95690777	      0.00000000	      0.00000000	    -64.17361246	      4.81730977	     -6.28187028	     52.39335933	    -16.12182985	     21.55991675	     76.81830056	     50.83270075	      0.00000000	      0.00000000	     44.37753131	    -26.60679772	     18.92004846	     93.70597061	     51.15962591	      0.00000000	      0.00000000
      5.00500000	    -22.32781325	     -5.09873536	      5.95339375	      0.36715287	      1.12717058	     -0.27825558	      0.00000000	      0.50000000	      0.00000000	      0.25000000	     59.74213170	     -4.02978664	     -0.93369106	    100.13883931	      1.74775246	    -12.15915135	    -13.18293983	      0.00000000	      0.00000000	     48.35043042	     -1.42186071	      9.45706357	     45.27369339	      0.79017501	    -12.06784174	    -13.40185426	      0.00000000	      0.00000000	    -64.04015584	      5.34947512	     -5.58827522	     52.58035639	    -15.93456661	     21.77602257	     76.82876373	     50.84119864	      0.00000000	      0.00000000	     43.91429496	    -26.70410594	     18.70173374	     93.67896390	     51.12994363	      0.00000000	      0.00000000
      5.01000000	    -22.34924283	     -5.69837090	      5.64187400	      0.36756212	      1.12671191	     -0.27825221	      0.00000000	      0.50000000	      0.00000000	      0.25000000	     61.08303647	     -3.51824545	     -1.15704487	    101.85090635	      1.77763366	    -10.97729644	    -13.11110209	      0.00000000	      0.00000000	     46.98136804	     -2.37227240	      9.35336860	     43.23142355	      0.75453068	    -13.43699773	    -13.05946665	      0.00000000	      0.00000000	    -63.94655624	      5.79904137	     -5.00229828	     52.78896772	    -15.74129227	     22.07674683	     76.86620962	     50.86163086	      0.00000000	      0.00000000	     43.40051882	    -26.79720348	     18.35198368	     93.60619697	     51.07993537	      0.00000000	      0.00000000
      5.01500000	    -22.26873202	     -5.96787544	      5.33049443	      0.36803012	      1.12650460	     -0.27848705	      0.00000000	      0.50000000	      0.00000000	      0.25000000	     62.34612499	     -3.27611601	     -1.06656398	    103.51986754	      1.80676253	     -9.66264641	    -12.42639242	      0.00000000	      0.00000000	     45.37142011	     -3.00955183	      9.02616549	     41.11947103	      0.71767016	    -15.20919205	    -13.57225407	      0.00000000	      0.00000000	    -64.01779110	      6.27095238	     -5.50158000	     53.99400589	    -14.90945309	     24.09549407	     75.73917472	     50.89324051	      0.00000000	      0.00000000	     41.41622721	    -27.33644269	     15.66143187	     94.95543025	     51.09625662	      0.00000000	      0.00000000
      5.02000000	    -22.39086575	     -6.51420207	      5.04404492	      0.36826840	      1.12595095	     -0.27846997	      0.00000000	      0.50000000	      0.00000000	      0.25000000	     63.82788204	     -2.89370703	     -1.37265826	    105.00210937	      1.83263253	     -8.84139149	    -12.64649840	      0.00000000	      0.00000000	     44.16038686	     -3.88370760	      8.89036522	     39.33550677	      0.68653411	    -16.04696525	    -13.01204038	      0.00000000	      0.00000000	    -63.86021159	      6.77336850	     -4.78006568	     54.14468765	    -14.72563542	     24.17728514	     75.81050631	     50.90357132	      0.00000000	      0.00000000	     41.11311276	    -27.47681551	     15.58935436	     94.87827509	     51.07634950	      0.00000000	      0.00000000
      5.02500000	    -22.36519399	     -6.68780412	      4.54804298	      0.36889028	      1.12604593	     -0.27820186	      0.00000000	      0.50000000	      0.00000000	      0.25000000	     65.14810236	     -2.52315923	     -1.19959795	    106.37466669	      1.85658817	     -7.86061201	    -12.29673981	      0.00000000	      0.00000000	     42.56548607	     -4.64750847	      8.19373709	     37.30545745	      0.65110306	    -17.62636222	    -12.85797685	      0.00000000	      0.00000000	    -63.90181333	      6.80444608	     -4.55955186	     54.28627572	    -14.51768979	     24.54443506	     75.96652093	     50.96122819	      0.00000000	      0.00000000	     40.51341881	    -27.62196258	     15.03611326	     94.75680028	     51.01338446	      0.00000000	      0.00000000
